# File created by Blade
# Date/Time:  Wed Jan 21 17:21:31 2015
# Frame Rate: 120.000 fps
#------------------------------------------------------
:FULLY-SPECIFIED
:DEGREES
679
root 18.699047 13.962151 -24.123184 -154.626574 18.885518 -199.287203
Spine -4.333250 30.585028 -24.182648
Head -7.570121 -9.515069 -7.600636
LeftShoulder -4.776620 -5.440618 2.979045
LeftArm -85.377738 50.954666 -133.346859
LeftForeArm -15.966134 -0.000000 57.333429
LeftHand -20.673328 0.000000 -5.880060
LeftHandThumb1 -26.253704 0.000000 33.147579
RightShoulder 3.386245 -5.368910 10.415467
RightArm 25.894195 15.618953 64.795066
RightForeArm -21.703613 -0.000000 5.050759
RightHand -3.450588 -0.000000 4.069376
RightHandThumb1 -24.326973 -0.000000 -32.862282
LeftUpLeg -124.194451 -6.756630 -39.908823
LeftLeg 120.200513 -0.000000 -0.000000
LeftFoot -41.736855 27.221601 -7.093572
LeftToeBase 20.991298 -0.000000 -0.000000
RightUpLeg 17.009751 -9.572353 -21.688305
RightLeg 143.227752 -0.000000 -0.000000
RightFoot 47.157870 -19.211240 -3.561449
RightToeBase 24.542831 -0.000000 -0.000000
680
root 18.694582 13.963566 -24.124340 -154.559537 18.787394 -199.322897
Spine -4.317721 30.534789 -24.085861
Head -8.216462 -9.546127 -7.644055
LeftShoulder -4.864891 -5.504494 2.956722
LeftArm -85.489901 50.952113 -133.483537
LeftForeArm -15.946622 -0.000000 57.287573
LeftHand -20.643495 -0.000000 -5.883442
LeftHandThumb1 -26.253704 0.000000 33.147579
RightShoulder 3.370919 -5.337542 10.381369
RightArm 25.829356 15.637662 64.754474
RightForeArm -21.622542 -0.000000 5.060567
RightHand -3.477938 -0.000000 4.085096
RightHandThumb1 -24.326973 -0.000000 -32.862282
LeftUpLeg -124.175309 -6.859261 -39.973098
LeftLeg 120.172087 -0.000000 -0.000000
LeftFoot -41.700483 27.202379 -7.021778
LeftToeBase 21.029575 -0.000000 -0.000000
RightUpLeg 16.978958 -9.517236 -21.640971
RightLeg 143.247351 -0.000000 -0.000000
RightFoot 47.149566 -19.165627 -3.510140
RightToeBase 24.531390 -0.000000 -0.000000
681
root 18.687611 13.965075 -24.126103 -154.478407 18.667357 -199.363301
Spine -4.282254 30.464376 -23.987903
Head -8.962890 -9.561030 -7.654780
LeftShoulder -5.035347 -5.589101 2.928001
LeftArm -85.678153 51.013580 -133.656393
LeftForeArm -15.948305 -0.000000 57.284556
LeftHand -20.733390 -0.000000 -5.988469
LeftHandThumb1 -26.253704 0.000000 33.147579
RightShoulder 3.314165 -5.313001 10.342886
RightArm 25.791475 15.694527 64.752067
RightForeArm -21.590619 -0.000000 5.115856
RightHand -3.463864 -0.000000 4.130127
RightHandThumb1 -24.326973 -0.000000 -32.862282
LeftUpLeg -124.149211 -6.987738 -40.050882
LeftLeg 120.137935 -0.000000 -0.000000
LeftFoot -41.645870 27.193532 -6.917154
LeftToeBase 20.944999 -0.000000 -0.000000
RightUpLeg 16.946267 -9.503921 -21.594253
RightLeg 143.262506 -0.000000 -0.000000
RightFoot 47.105929 -19.118033 -3.515305
RightToeBase 24.751981 -0.000000 -0.000000
682
root 18.680366 13.967110 -24.129112 -154.435241 18.555493 -199.428761
Spine -4.249466 30.413535 -23.890870
Head -9.558919 -9.725834 -7.683731
LeftShoulder -5.132677 -5.555370 2.881088
LeftArm -85.784490 51.113943 -133.786182
LeftForeArm -16.146480 -0.000000 57.285902
LeftHand -20.799393 -0.000000 -6.059088
LeftHandThumb1 -26.253704 0.000000 33.147579
RightShoulder 3.343645 -5.291378 10.289553
RightArm 25.686537 15.854451 64.781234
RightForeArm -21.444731 -0.000000 5.152748
RightHand -3.485020 -0.000000 3.912017
RightHandThumb1 -24.326973 -0.000000 -32.862282
LeftUpLeg -124.091721 -7.082723 -40.170866
LeftLeg 120.105287 -0.000000 -0.000000
LeftFoot -41.625416 27.140356 -6.853737
LeftToeBase 20.971628 -0.000000 -0.000000
RightUpLeg 16.945920 -9.482722 -21.581149
RightLeg 143.255794 -0.000000 -0.000000
RightFoot 47.137538 -19.112566 -3.522538
RightToeBase 24.860456 -0.000000 -0.000000
683
root 18.671360 13.970656 -24.132548 -154.410393 18.458852 -199.498198
Spine -4.195254 30.406169 -23.788090
Head -10.115594 -9.820618 -7.758496
LeftShoulder -5.190136 -5.598276 2.841150
LeftArm -86.029702 51.191384 -134.089472
LeftForeArm -16.324254 0.000000 57.249058
LeftHand -20.736112 -0.000000 -6.011560
LeftHandThumb1 -26.253704 0.000000 33.147579
RightShoulder 3.353705 -5.220719 10.245264
RightArm 25.565770 16.085531 64.837774
RightForeArm -21.281496 -0.000000 5.174563
RightHand -3.536720 -0.000000 3.605186
RightHandThumb1 -24.326973 -0.000000 -32.862282
LeftUpLeg -124.023225 -7.156441 -40.293278
LeftLeg 120.074868 -0.000000 -0.000000
LeftFoot -41.581110 27.072830 -6.778017
LeftToeBase 20.854362 -0.000000 -0.000000
RightUpLeg 16.952014 -9.478109 -21.597934
RightLeg 143.260827 -0.000000 -0.000000
RightFoot 47.177536 -19.223715 -3.631697
RightToeBase 24.475261 -0.000000 -0.000000
684
root 18.664426 13.974693 -24.135222 -154.353100 18.340144 -199.569360
Spine -4.181470 30.375113 -23.721188
Head -10.689338 -9.879562 -7.803662
LeftShoulder -5.268230 -5.648767 2.834753
LeftArm -86.137835 51.244824 -134.224692
LeftForeArm -16.251952 -0.000000 57.204656
LeftHand -20.801646 -0.000000 -6.181723
LeftHandThumb1 -26.253704 0.000000 33.147579
RightShoulder 3.304540 -5.178528 10.256668
RightArm 25.514547 16.340939 64.899014
RightForeArm -21.233680 -0.000000 5.239102
RightHand -3.782682 -0.000000 3.363139
RightHandThumb1 -24.326973 -0.000000 -32.862282
LeftUpLeg -123.969575 -7.270028 -40.402097
LeftLeg 120.036192 -0.000000 -0.000000
LeftFoot -41.539724 27.019884 -6.716155
LeftToeBase 20.869669 -0.000000 -0.000000
RightUpLeg 16.931650 -9.482010 -21.589734
RightLeg 143.269053 -0.000000 -0.000000
RightFoot 47.158091 -19.171778 -3.684128
RightToeBase 24.634327 -0.000000 -0.000000
685
root 18.658501 13.978031 -24.137998 -154.319719 18.232686 -199.630849
Spine -4.145599 30.363259 -23.634279
Head -11.221939 -9.956344 -7.845693
LeftShoulder -5.321181 -5.680917 2.834672
LeftArm -86.214354 51.283007 -134.368027
LeftForeArm -16.322393 -0.000000 57.129552
LeftHand -20.806566 -0.000000 -6.108624
LeftHandThumb1 -26.253704 0.000000 33.147579
RightShoulder 3.251296 -5.176427 10.251045
RightArm 25.542700 16.641688 64.992548
RightForeArm -21.284330 -0.000000 5.280111
RightHand -3.879160 -0.000000 3.190556
RightHandThumb1 -24.326973 -0.000000 -32.862282
LeftUpLeg -123.907902 -7.350075 -40.510844
LeftLeg 120.004605 -0.000000 -0.000000
LeftFoot -41.497621 26.962687 -6.644328
LeftToeBase 20.861358 -0.000000 -0.000000
RightUpLeg 16.935274 -9.460844 -21.582694
RightLeg 143.264019 -0.000000 -0.000000
RightFoot 47.181322 -19.167669 -3.682675
RightToeBase 24.651436 -0.000000 -0.000000
686
root 18.653014 13.982787 -24.137132 -154.278283 18.148398 -199.666320
Spine -4.109639 30.376108 -23.532823
Head -11.760485 -10.004015 -7.884546
LeftShoulder -5.353450 -5.743511 2.836849
LeftArm -86.217054 51.267868 -134.442128
LeftForeArm -16.409483 -0.000000 57.008108
LeftHand -20.756210 -0.000000 -6.062949
LeftHandThumb1 -26.253704 0.000000 33.147579
RightShoulder 3.193039 -5.162488 10.238557
RightArm 25.607810 16.902560 65.067948
RightForeArm -21.476212 -0.000000 5.320574
RightHand -4.025635 -0.000000 3.110102
RightHandThumb1 -24.326973 -0.000000 -32.862282
LeftUpLeg -123.869101 -7.409121 -40.607715
LeftLeg 119.966788 -0.000000 -0.000000
LeftFoot -41.478459 26.914436 -6.595979
LeftToeBase 20.902577 -0.000000 -0.000000
RightUpLeg 16.905753 -9.435193 -21.561259
RightLeg 143.288021 -0.000000 -0.000000
RightFoot 47.175003 -19.120011 -3.726851
RightToeBase 24.820040 -0.000000 -0.000000
687
root 18.647955 13.985991 -24.137495 -154.237946 18.046954 -199.697905
Spine -4.085870 30.370068 -23.439319
Head -12.250339 -10.050555 -7.894658
LeftShoulder -5.383557 -5.791596 2.868921
LeftArm -86.206152 51.235977 -134.534185
LeftForeArm -16.493800 -0.000000 56.856114
LeftHand -20.629237 -0.000000 -6.108601
LeftHandThumb1 -26.253704 0.000000 33.147579
RightShoulder 3.126590 -5.068322 10.253582
RightArm 25.611662 17.021811 65.054338
RightForeArm -21.843754 -0.000000 5.312121
RightHand -4.140734 0.000000 2.969632
RightHandThumb1 -24.326973 -0.000000 -32.862282
LeftUpLeg -123.826896 -7.482112 -40.689171
LeftLeg 119.936163 -0.000000 -0.000000
LeftFoot -41.435595 26.857837 -6.534431
LeftToeBase 20.927117 -0.000000 -0.000000
RightUpLeg 16.893138 -9.441407 -21.534344
RightLeg 143.291183 -0.000000 -0.000000
RightFoot 47.182473 -19.117668 -3.741350
RightToeBase 24.936884 -0.000000 -0.000000
688
root 18.638399 13.988763 -24.138363 -154.205762 17.947174 -199.748591
Spine -4.071194 30.337946 -23.353178
Head -12.698119 -10.103525 -7.888995
LeftShoulder -5.420751 -5.816698 2.881767
LeftArm -86.224457 51.203939 -134.617406
LeftForeArm -16.536028 -0.000000 56.787266
LeftHand -20.639703 -0.000000 -6.186646
LeftHandThumb1 -26.253704 0.000000 33.147579
RightShoulder 3.078329 -4.998986 10.241678
RightArm 25.620161 16.991189 64.973711
RightForeArm -22.121449 -0.000000 5.331106
RightHand -4.123863 -0.000000 2.846823
RightHandThumb1 -24.326973 -0.000000 -32.862282
LeftUpLeg -123.766290 -7.572542 -40.778763
LeftLeg 119.887813 -0.000000 -0.000000
LeftFoot -41.378733 26.847212 -6.425459
LeftToeBase 20.892027 -0.000000 -0.000000
RightUpLeg 16.888990 -9.469267 -21.546259
RightLeg 143.291958 -0.000000 -0.000000
RightFoot 47.211016 -19.171282 -3.818211
RightToeBase 25.043549 -0.000000 -0.000000
689
root 18.628744 13.991827 -24.139284 -154.172102 17.857803 -199.802662
Spine -4.067623 30.297955 -23.284669
Head -13.144017 -10.143801 -7.876222
LeftShoulder -5.464365 -5.840921 2.885697
LeftArm -86.233688 51.159835 -134.636918
LeftForeArm -16.578926 -0.000000 56.760556
LeftHand -20.585432 -0.000000 -6.152227
LeftHandThumb1 -26.253704 0.000000 33.147579
RightShoulder 3.064967 -4.901100 10.244503
RightArm 25.591050 16.709683 64.731259
RightForeArm -22.134214 -0.000000 5.333353
RightHand -4.309933 -0.000000 2.894328
RightHandThumb1 -24.326973 -0.000000 -32.862282
LeftUpLeg -123.706213 -7.661360 -40.863863
LeftLeg 119.857220 -0.000000 -0.000000
LeftFoot -41.378815 26.801181 -6.371951
LeftToeBase 20.988684 -0.000000 -0.000000
RightUpLeg 16.883668 -9.459641 -21.561537
RightLeg 143.289345 -0.000000 -0.000000
RightFoot 47.225928 -19.166567 -3.842283
RightToeBase 25.068011 -0.000000 -0.000000
690
root 18.619308 13.994522 -24.139575 -154.125557 17.760135 -199.846435
Spine -4.086166 30.258135 -23.229116
Head -13.547944 -10.202741 -7.831413
LeftShoulder -5.501368 -5.853040 2.894614
LeftArm -86.184919 51.111042 -134.579909
LeftForeArm -16.543065 -0.000000 56.743820
LeftHand -20.609342 -0.000000 -6.202229
LeftHandThumb1 -26.253704 0.000000 33.147579
RightShoulder 3.037473 -4.873676 10.248618
RightArm 25.626580 16.463770 64.506423
RightForeArm -22.416131 -0.000000 5.353236
RightHand -4.381838 -0.000000 3.063352
RightHandThumb1 -24.326973 -0.000000 -32.862282
LeftUpLeg -123.657556 -7.765842 -40.936711
LeftLeg 119.809705 -0.000000 -0.000000
LeftFoot -41.281651 26.830454 -6.225614
LeftToeBase 20.898448 -0.000000 -0.000000
RightUpLeg 16.874289 -9.456488 -21.557339
RightLeg 143.288087 -0.000000 -0.000000
RightFoot 47.239973 -19.199810 -3.858958
RightToeBase 24.735388 -0.000000 -0.000000
